<svg width="21" height="24" viewBox="0 0 21 24" fill="none" xmlns="http://www.w3.org/2000/svg">
<path d="M17.1429 8H19.4286C19.7317 8 20.0224 8.12041 20.2367 8.33474C20.451 8.54906 20.5714 8.83975 20.5714 9.14286V22.8571C20.5714 23.1602 20.451 23.4509 20.2367 23.6653C20.0224 23.8796 19.7317 24 19.4286 24H1.14286C0.839752 24 0.549062 23.8796 0.334735 23.6653C0.120408 23.4509 0 23.1602 0 22.8571V9.14286C0 8.83975 0.120408 8.54906 0.334735 8.33474C0.549062 8.12041 0.839752 8 1.14286 8H3.42857V6.85714C3.42857 5.03852 4.15102 3.29437 5.43698 2.00841C6.72295 0.722447 8.46709 0 10.2857 0C12.1043 0 13.8485 0.722447 15.1344 2.00841C16.4204 3.29437 17.1429 5.03852 17.1429 6.85714V8ZM2.28571 10.2857V21.7143H18.2857V10.2857H2.28571ZM9.14286 14.8571H11.4286V17.1429H9.14286V14.8571ZM4.57143 14.8571H6.85714V17.1429H4.57143V14.8571ZM13.7143 14.8571H16V17.1429H13.7143V14.8571ZM14.8571 8V6.85714C14.8571 5.64472 14.3755 4.48196 13.5182 3.62465C12.6609 2.76735 11.4981 2.28571 10.2857 2.28571C9.0733 2.28571 7.91053 2.76735 7.05323 3.62465C6.19592 4.48196 5.71429 5.64472 5.71429 6.85714V8H14.8571Z" stroke="#FDF4B0" fill="#FDF4B0" />
</svg>
