<svg width="24" height="27" viewBox="0 0 24 27" fill="none" xmlns="http://www.w3.org/2000/svg">
<path d="M2 2V20.0585C2 20.7996 2.40978 21.4799 3.06487 21.8264L8.02009 24.4475C9.35206 25.152 10.9552 24.1864 10.9552 22.6796V21.2632M2 2H15.8209C16.9255 2 17.8209 2.89543 17.8209 4V7.05263M2 2L9.93801 6.47871C10.5665 6.8333 10.9552 7.49897 10.9552 8.22058V21.2632M13.9403 11.7895H22M22 11.7895L19.6119 9.26316M22 11.7895L19.6119 14.3158M17.8209 16.5263V19.2632C17.8209 20.3677 16.9255 21.2632 15.8209 21.2632H10.9552" stroke="white" stroke-width="3" stroke-linejoin="round"/>
</svg>
