<svg width="30" height="44" viewBox="0 0 30 44" fill="none" xmlns="http://www.w3.org/2000/svg">
<path d="M14.9566 44L2.00384 20.163H27.9093L14.9566 44Z" fill="#FF4949"/>
<circle cx="14.9566" cy="14.087" r="13.087" fill="white" stroke="#FF4949" stroke-width="2"/>
<path d="M13.7501 16.0375L13.0061 5.06951H17.4701L16.7261 16.0375H13.7501ZM15.2381 22.0615C14.5661 22.0615 14.0141 21.8455 13.5821 21.4135C13.1501 20.9815 12.9341 20.4695 12.9341 19.8775C12.9341 19.2695 13.1501 18.7655 13.5821 18.3655C14.0141 17.9495 14.5661 17.7415 15.2381 17.7415C15.9261 17.7415 16.4781 17.9495 16.8941 18.3655C17.3261 18.7655 17.5421 19.2695 17.5421 19.8775C17.5421 20.4695 17.3261 20.9815 16.8941 21.4135C16.4781 21.8455 15.9261 22.0615 15.2381 22.0615Z" fill="#FF4949"/>
</svg>
