<svg width="183" height="19" viewBox="0 0 183 19" fill="none" xmlns="http://www.w3.org/2000/svg">
<path d="M0.590313 18V1.2H7.14231C8.61431 1.2 9.87031 1.432 10.9103 1.896C11.9503 2.36 12.7503 3.032 13.3103 3.912C13.8703 4.792 14.1503 5.84 14.1503 7.056C14.1503 8.272 13.8703 9.32 13.3103 10.2C12.7503 11.064 11.9503 11.728 10.9103 12.192C9.87031 12.656 8.61431 12.888 7.14231 12.888H1.91031L2.99031 11.784V18H0.590313ZM11.8223 18L7.55031 11.904H10.1183L14.4383 18H11.8223ZM2.99031 12.024L1.91031 10.848H7.07031C8.60631 10.848 9.76631 10.52 10.5503 9.864C11.3503 9.192 11.7503 8.256 11.7503 7.056C11.7503 5.856 11.3503 4.928 10.5503 4.272C9.76631 3.616 8.60631 3.288 7.07031 3.288H1.91031L2.99031 2.088V12.024ZM20.2118 8.448H28.8518V10.488H20.2118V8.448ZM20.4278 15.912H30.2198V18H18.0278V1.2H29.8838V3.288H20.4278V15.912ZM34.1059 18V1.2H40.6579C42.1299 1.2 43.3859 1.432 44.4259 1.896C45.4659 2.36 46.2659 3.032 46.8259 3.912C47.3859 4.792 47.6659 5.84 47.6659 7.056C47.6659 8.272 47.3859 9.32 46.8259 10.2C46.2659 11.064 45.4659 11.736 44.4259 12.216C43.3859 12.68 42.1299 12.912 40.6579 12.912H35.4259L36.5059 11.784V18H34.1059ZM36.5059 12.024L35.4259 10.824H40.5859C42.1219 10.824 43.2819 10.496 44.0659 9.84C44.8659 9.184 45.2659 8.256 45.2659 7.056C45.2659 5.856 44.8659 4.928 44.0659 4.272C43.2819 3.616 42.1219 3.288 40.5859 3.288H35.4259L36.5059 2.088V12.024ZM59.0103 18.192C57.7303 18.192 56.5383 17.976 55.4343 17.544C54.3463 17.112 53.4023 16.512 52.6023 15.744C51.8023 14.96 51.1783 14.048 50.7303 13.008C50.2823 11.968 50.0583 10.832 50.0583 9.6C50.0583 8.368 50.2823 7.232 50.7303 6.192C51.1783 5.152 51.8023 4.248 52.6023 3.48C53.4023 2.696 54.3463 2.088 55.4343 1.656C56.5223 1.224 57.7143 1.008 59.0103 1.008C60.2903 1.008 61.4663 1.224 62.5383 1.656C63.6263 2.072 64.5703 2.672 65.3703 3.456C66.1863 4.224 66.8103 5.128 67.2423 6.168C67.6903 7.208 67.9143 8.352 67.9143 9.6C67.9143 10.848 67.6903 11.992 67.2423 13.032C66.8103 14.072 66.1863 14.984 65.3703 15.768C64.5703 16.536 63.6263 17.136 62.5383 17.568C61.4663 17.984 60.2903 18.192 59.0103 18.192ZM59.0103 16.056C59.9383 16.056 60.7943 15.896 61.5782 15.576C62.3783 15.256 63.0663 14.808 63.6423 14.232C64.2343 13.64 64.6903 12.952 65.0103 12.168C65.3463 11.384 65.5143 10.528 65.5143 9.6C65.5143 8.672 65.3463 7.816 65.0103 7.032C64.6903 6.248 64.2343 5.568 63.6423 4.992C63.0663 4.4 62.3783 3.944 61.5782 3.624C60.7943 3.304 59.9383 3.144 59.0103 3.144C58.0663 3.144 57.1943 3.304 56.3943 3.624C55.6103 3.944 54.9223 4.4 54.3303 4.992C53.7383 5.568 53.2743 6.248 52.9383 7.032C52.6183 7.816 52.4583 8.672 52.4583 9.6C52.4583 10.528 52.6183 11.384 52.9383 12.168C53.2743 12.952 53.7383 13.64 54.3303 14.232C54.9223 14.808 55.6103 15.256 56.3943 15.576C57.1943 15.896 58.0663 16.056 59.0103 16.056ZM71.5825 18V1.2H78.1345C79.6065 1.2 80.8625 1.432 81.9025 1.896C82.9425 2.36 83.7425 3.032 84.3025 3.912C84.8625 4.792 85.1425 5.84 85.1425 7.056C85.1425 8.272 84.8625 9.32 84.3025 10.2C83.7425 11.064 82.9425 11.728 81.9025 12.192C80.8625 12.656 79.6065 12.888 78.1345 12.888H72.9025L73.9825 11.784V18H71.5825ZM82.8145 18L78.5425 11.904H81.1105L85.4305 18H82.8145ZM73.9825 12.024L72.9025 10.848H78.0625C79.5985 10.848 80.7585 10.52 81.5425 9.864C82.3425 9.192 82.7425 8.256 82.7425 7.056C82.7425 5.856 82.3425 4.928 81.5425 4.272C80.7585 3.616 79.5985 3.288 78.0625 3.288H72.9025L73.9825 2.088V12.024ZM92.1216 18V3.288H86.3616V1.2H100.258V3.288H94.4976V18H92.1216Z" fill="white"/>
<path d="M107.192 18L100.016 1.2H105.152L111.2 15.744H108.176L114.368 1.2H119.072L111.872 18H107.192ZM124.423 7.704H132.223V11.256H124.423V7.704ZM124.759 14.328H133.543V18H120.055V1.2H133.231V4.872H124.759V14.328ZM136.18 18V1.2H143.86C145.396 1.2 146.716 1.448 147.82 1.944C148.94 2.44 149.804 3.16 150.412 4.104C151.02 5.032 151.324 6.136 151.324 7.416C151.324 8.68 151.02 9.776 150.412 10.704C149.804 11.616 148.94 12.32 147.82 12.816C146.716 13.296 145.396 13.536 143.86 13.536H138.82L140.932 11.544V18H136.18ZM146.572 18L142.396 11.88H147.46L151.66 18H146.572ZM140.932 12.048L138.82 9.864H143.572C144.564 9.864 145.3 9.648 145.78 9.216C146.276 8.784 146.524 8.184 146.524 7.416C146.524 6.632 146.276 6.024 145.78 5.592C145.3 5.16 144.564 4.944 143.572 4.944H138.82L140.932 2.76V12.048ZM159.85 18.336C158.474 18.336 157.146 18.168 155.866 17.832C154.602 17.48 153.57 17.032 152.77 16.488L154.33 12.984C155.082 13.464 155.946 13.864 156.922 14.184C157.914 14.488 158.898 14.64 159.874 14.64C160.53 14.64 161.058 14.584 161.458 14.472C161.858 14.344 162.146 14.184 162.322 13.992C162.514 13.784 162.61 13.544 162.61 13.272C162.61 12.888 162.434 12.584 162.082 12.36C161.73 12.136 161.274 11.952 160.714 11.808C160.154 11.664 159.53 11.52 158.842 11.376C158.17 11.232 157.49 11.048 156.802 10.824C156.13 10.6 155.514 10.312 154.954 9.96C154.394 9.592 153.938 9.12 153.586 8.544C153.234 7.952 153.058 7.208 153.058 6.312C153.058 5.304 153.33 4.392 153.874 3.576C154.434 2.76 155.266 2.104 156.37 1.608C157.474 1.112 158.85 0.863999 160.498 0.863999C161.602 0.863999 162.682 0.991999 163.738 1.248C164.81 1.488 165.762 1.848 166.594 2.328L165.13 5.856C164.33 5.424 163.538 5.104 162.754 4.896C161.97 4.672 161.21 4.56 160.474 4.56C159.818 4.56 159.29 4.632 158.89 4.776C158.49 4.904 158.202 5.08 158.026 5.304C157.85 5.528 157.762 5.784 157.762 6.072C157.762 6.44 157.93 6.736 158.266 6.96C158.618 7.168 159.074 7.344 159.634 7.488C160.21 7.616 160.834 7.752 161.506 7.896C162.194 8.04 162.874 8.224 163.546 8.448C164.234 8.656 164.858 8.944 165.418 9.312C165.978 9.664 166.426 10.136 166.762 10.728C167.114 11.304 167.29 12.032 167.29 12.912C167.29 13.888 167.01 14.792 166.45 15.624C165.906 16.44 165.082 17.096 163.978 17.592C162.89 18.088 161.514 18.336 159.85 18.336ZM173.853 7.704H181.653V11.256H173.853V7.704ZM174.189 14.328H182.973V18H169.485V1.2H182.661V4.872H174.189V14.328Z" fill="#FDF4B0"/>
</svg>
